<?xml version="1.0" standalone="no"?>
<!DOCTYPE svg PUBLIC "-//W3C//DTD SVG 20010904//EN"
 "http://www.w3.org/TR/2001/REC-SVG-20010904/DTD/svg10.dtd">
<svg version="1.0" xmlns="http://www.w3.org/2000/svg"
 width="480.000000pt" height="290.000000pt" viewBox="0 0 480.000000 290.000000"
 preserveAspectRatio="xMidYMid meet">

<g transform="translate(0.000000,290.000000) scale(0.100000,-0.100000)"
fill="#000000" stroke="none">
<path d="M0 1450 l0 -1450 2400 0 2400 0 0 1450 0 1450 -2400 0 -2400 0 0
-1450z m3232 1076 c174 -53 271 -146 372 -359 90 -188 150 -225 391 -236 118
-6 148 -11 188 -30 65 -32 144 -112 176 -180 26 -56 26 -56 29 -363 3 -299 3
-307 -17 -327 -27 -27 -75 -27 -101 -1 -19 19 -20 33 -20 280 0 144 -5 281
-11 308 -13 61 -66 127 -123 153 -32 15 -66 19 -154 19 -94 0 -126 4 -188 25
-146 49 -212 113 -304 298 -72 143 -125 203 -220 250 l-64 32 -268 3 c-299 4
-353 -4 -440 -59 -75 -48 -114 -101 -183 -243 -71 -148 -120 -208 -204 -250
-108 -55 -116 -56 -756 -56 -381 0 -603 -4 -628 -11 -21 -5 -53 -24 -73 -41
-68 -60 -68 -60 -74 -396 -5 -286 -6 -304 -24 -318 -28 -20 -73 -17 -96 6 -20
20 -21 30 -18 333 l3 312 26 55 c34 72 97 136 167 168 l57 27 625 5 c576 5
629 7 675 24 109 40 128 61 195 215 49 112 81 160 151 227 65 61 130 100 207
125 50 16 95 18 357 18 231 1 311 -2 347 -13z m-1670 -297 c21 -6 53 -25 73
-41 32 -27 35 -34 35 -79 0 -42 -5 -55 -29 -80 l-29 -29 -290 0 -290 0 -31 26
c-27 23 -31 32 -31 79 0 48 3 56 32 80 65 55 123 65 348 60 105 -2 190 -8 212
-16z m1651 7 c53 -19 74 -41 92 -96 21 -64 8 -117 -40 -159 -56 -49 -89 -53
-409 -49 -285 3 -292 3 -329 26 -109 68 -89 248 31 280 60 16 609 14 655 -2z
m-138 -480 c114 -31 203 -84 303 -181 79 -77 92 -95 92 -122 0 -41 -30 -73
-68 -73 -20 0 -47 19 -108 79 -126 123 -248 175 -409 174 -68 0 -109 -7 -167
-26 -100 -32 -160 -71 -242 -157 -73 -77 -107 -89 -146 -50 -34 34 -26 72 28
137 91 109 216 187 352 218 41 9 80 19 85 21 24 9 225 -5 280 -20z m-2055 -88
c76 -52 99 -132 61 -212 -40 -81 -150 -110 -220 -59 -50 38 -66 71 -66 133 0
69 20 103 81 137 50 29 102 29 144 1z m990 -808 l0 -180 -25 0 c-16 0 -25 6
-25 16 0 14 -2 14 -22 0 -42 -30 -114 -14 -143 30 -22 33 -29 97 -15 138 22
68 86 94 150 61 l30 -16 0 66 c0 63 1 65 25 65 l25 0 0 -180z m380 160 c0 -15
-7 -20 -25 -20 -18 0 -25 5 -25 20 0 15 7 20 25 20 18 0 25 -5 25 -20z m110 0
c0 -13 -7 -20 -20 -20 -13 0 -20 7 -20 20 0 13 7 20 20 20 13 0 20 -7 20 -20z
m160 1 c0 -10 -9 -21 -20 -24 -14 -3 -20 -14 -20 -31 0 -19 5 -26 20 -26 13 0
20 -7 20 -20 0 -13 -7 -20 -20 -20 -19 0 -20 -7 -20 -110 0 -103 -1 -110 -20
-110 -19 0 -20 7 -20 110 0 103 -1 110 -20 110 -13 0 -20 7 -20 20 0 13 7 20
20 20 17 0 20 7 20 40 0 42 16 59 58 60 15 0 22 -6 22 -19z m140 0 c0 -10 -9
-21 -20 -24 -14 -3 -20 -14 -20 -31 0 -19 5 -26 20 -26 13 0 20 -7 20 -20 0
-13 -7 -20 -20 -20 -19 0 -20 -7 -20 -110 0 -103 -1 -110 -20 -110 -19 0 -20
7 -20 110 0 103 -1 110 -20 110 -13 0 -20 7 -20 20 0 13 7 20 20 20 17 0 20 7
20 40 0 42 16 59 58 60 15 0 22 -6 22 -19z m-555 -106 c23 -22 25 -32 25 -110
0 -69 3 -85 15 -85 8 0 15 -9 15 -20 0 -27 -45 -27 -62 -1 -12 19 -12 19 -36
0 -36 -28 -97 -25 -127 6 -56 56 -16 118 83 130 56 6 62 9 62 30 0 39 -66 49
-101 14 -11 -11 -29 -19 -39 -17 -17 3 -18 6 -7 28 27 54 129 69 172 25z m145
-133 c0 -177 -7 -202 -61 -202 -22 0 -29 5 -29 19 0 10 9 21 20 24 19 5 20 14
20 161 l0 156 25 0 25 0 0 -158z m110 28 c0 -123 -1 -130 -20 -130 -19 0 -20
7 -20 130 0 123 1 130 20 130 19 0 20 -7 20 -130z m402 25 l34 -106 34 106
c30 93 37 105 57 105 13 0 23 -4 23 -9 0 -22 -111 -308 -128 -331 -25 -33 -82
-41 -82 -11 0 13 8 21 22 23 13 2 29 15 36 31 15 31 17 22 -47 196 -17 46 -31
88 -31 93 0 4 11 8 24 8 21 0 27 -11 58 -105z"/>
<path d="M1846 887 c-12 -9 -20 -31 -23 -63 -9 -90 57 -135 114 -78 22 22 25
32 20 72 -8 70 -63 104 -111 69z"/>
<path d="M2168 799 c-57 -9 -68 -15 -68 -38 0 -29 26 -44 64 -37 41 8 59 27
54 58 -3 22 -6 23 -50 17z"/>
</g>
</svg>
