<?xml version="1.0" standalone="no"?>
<!DOCTYPE svg PUBLIC "-//W3C//DTD SVG 20010904//EN"
 "http://www.w3.org/TR/2001/REC-SVG-20010904/DTD/svg10.dtd">
<svg version="1.0" xmlns="http://www.w3.org/2000/svg"
 width="480.000000pt" height="290.000000pt" viewBox="0 0 480.000000 290.000000"
 preserveAspectRatio="xMidYMid meet">

<g transform="translate(0.000000,290.000000) scale(0.100000,-0.100000)"
fill="#000000" stroke="none">
<path d="M2565 2529 c-122 -27 -250 -118 -325 -229 -20 -30 -52 -92 -70 -137
-19 -46 -50 -104 -70 -130 -31 -41 -46 -52 -110 -75 l-75 -27 -587 0 c-696 -1
-694 -1 -794 -93 -106 -97 -114 -133 -114 -494 l0 -291 23 -21 c30 -28 68 -28
95 1 22 23 22 30 22 305 0 307 3 327 58 386 15 16 45 37 67 47 38 17 77 19
635 19 503 0 605 2 655 15 172 45 250 122 335 328 43 103 116 184 208 229 l67
33 283 3 c242 2 291 0 334 -14 130 -43 185 -99 272 -277 88 -179 162 -248 320
-296 51 -16 95 -21 177 -21 70 0 121 -5 142 -14 44 -18 113 -96 126 -142 7
-23 11 -148 11 -310 0 -270 0 -271 23 -292 30 -28 68 -28 95 1 21 23 22 30 22
298 0 351 -10 397 -116 503 -69 69 -127 88 -288 96 -111 6 -153 12 -196 29
-87 35 -150 107 -201 231 -50 122 -148 236 -249 289 -103 55 -150 61 -456 60
-154 -1 -297 -5 -319 -10z"/>
<path d="M1142 2239 c-69 -9 -144 -46 -163 -81 -17 -31 -5 -106 20 -132 21
-21 28 -21 321 -21 293 0 300 0 321 21 25 26 37 101 20 132 -20 37 -90 70
-174 81 -89 12 -251 12 -345 0z"/>
<path d="M2573 2240 c-80 -18 -118 -76 -111 -168 4 -45 10 -59 42 -90 l36 -37
123 -5 c67 -3 214 -5 327 -5 187 0 208 2 239 20 19 11 43 32 53 46 22 29 34
95 24 133 -8 33 -54 86 -85 98 -31 11 -601 19 -648 8z"/>
<path d="M2764 1766 c-175 -34 -295 -101 -401 -228 -58 -68 -64 -92 -32 -132
36 -45 63 -36 148 52 87 89 162 133 277 162 197 51 370 0 534 -156 53 -50 98
-84 110 -84 25 0 70 42 70 65 0 32 -31 74 -106 144 -83 78 -194 139 -299 166
-87 22 -218 27 -301 11z"/>
<path d="M895 1675 c-95 -33 -132 -155 -74 -237 56 -78 174 -85 237 -13 68 76
44 196 -48 243 -51 26 -61 26 -115 7z"/>
<path d="M1960 969 l0 -70 -26 20 c-43 34 -98 24 -136 -23 -12 -15 -18 -39
-18 -83 0 -52 4 -66 26 -92 39 -47 117 -51 147 -7 4 7 9 3 13 -11 4 -13 13
-23 20 -23 11 0 14 33 14 180 0 173 -1 180 -20 180 -18 0 -20 -7 -20 -71z
m-21 -95 c28 -36 29 -106 1 -134 -11 -11 -33 -20 -50 -20 -46 0 -70 31 -70 90
0 37 5 55 20 70 29 29 74 26 99 -6z"/>
<path d="M2340 1020 c0 -15 7 -20 25 -20 18 0 25 5 25 20 0 15 -7 20 -25 20
-18 0 -25 -5 -25 -20z"/>
<path d="M2460 1020 c0 -13 7 -20 20 -20 13 0 20 7 20 20 0 13 -7 20 -20 20
-13 0 -20 -7 -20 -20z"/>
<path d="M2597 1022 c-10 -10 -17 -33 -17 -50 0 -25 -4 -32 -20 -32 -13 0 -20
-7 -20 -20 0 -13 7 -20 20 -20 19 0 20 -7 20 -110 0 -103 1 -110 20 -110 19 0
20 7 20 110 0 103 1 110 20 110 13 0 20 7 20 20 0 13 -7 20 -20 20 -15 0 -20
7 -20 26 0 17 6 28 20 31 11 3 20 14 20 24 0 25 -41 25 -63 1z"/>
<path d="M2737 1022 c-10 -10 -17 -33 -17 -50 0 -25 -4 -32 -20 -32 -13 0 -20
-7 -20 -20 0 -13 7 -20 20 -20 19 0 20 -7 20 -110 0 -103 1 -110 20 -110 19 0
20 7 20 110 0 103 1 110 20 110 13 0 20 7 20 20 0 13 -7 20 -20 20 -15 0 -20
7 -20 26 0 17 6 28 20 31 11 3 20 14 20 24 0 25 -41 25 -63 1z"/>
<path d="M2115 928 c-25 -13 -45 -38 -45 -55 0 -19 23 -16 43 7 21 25 79 27
102 4 25 -26 13 -38 -51 -50 -75 -13 -100 -27 -108 -58 -19 -76 64 -123 139
-78 28 17 30 17 48 -1 10 -10 26 -17 35 -15 22 4 29 38 8 38 -13 0 -16 13 -16
73 0 39 -3 82 -6 95 -12 43 -100 67 -149 40z m115 -142 c0 -58 -120 -93 -128
-37 -5 30 8 42 55 51 67 13 73 12 73 -14z"/>
<path d="M2349 883 c-1 -80 -6 -246 -8 -255 0 -5 -10 -8 -21 -8 -13 0 -20 -7
-20 -20 0 -23 36 -28 63 -7 15 10 17 34 18 167 2 188 2 180 -16 180 -11 0 -15
-13 -16 -57z"/>
<path d="M2460 810 c0 -123 1 -130 20 -130 19 0 20 7 20 130 0 123 -1 130 -20
130 -19 0 -20 -7 -20 -130z"/>
<path d="M2820 936 c0 -3 20 -60 45 -127 25 -67 45 -130 45 -139 0 -25 -29
-60 -51 -60 -12 0 -19 -7 -19 -20 0 -29 45 -26 73 4 18 19 61 126 135 334 3
10 -2 13 -18 10 -20 -2 -28 -18 -56 -102 -19 -54 -36 -101 -38 -103 -3 -3 -20
43 -38 101 -29 93 -36 106 -55 106 -13 0 -23 -2 -23 -4z"/>
</g>
</svg>
